<?xml version="1.0" standalone="no"?>
<!DOCTYPE svg PUBLIC "-//W3C//DTD SVG 20010904//EN"
 "http://www.w3.org/TR/2001/REC-SVG-20010904/DTD/svg10.dtd">
<svg version="1.0" xmlns="http://www.w3.org/2000/svg"
 width="1000.000000pt" height="1000.000000pt" viewBox="0 0 1000.000000 1000.000000"
 preserveAspectRatio="xMidYMid meet">
<metadata>
Created by potrace 1.11, written by Peter Selinger 2001-2013
</metadata>
<g transform="translate(0.000000,1000.000000) scale(0.100000,-0.100000)"
fill="#000000" stroke="none">
<path d="M4748 9996 c-1 -2 -50 -6 -108 -10 -58 -3 -116 -8 -130 -10 -14 -3
-54 -7 -90 -10 -36 -3 -74 -8 -85 -10 -11 -2 -56 -9 -100 -16 -121 -17 -135
-20 -200 -35 -33 -7 -76 -16 -95 -19 -131 -20 -623 -168 -775 -233 -33 -14
-73 -31 -90 -38 -16 -7 -50 -21 -75 -31 -25 -10 -129 -60 -231 -111 -855 -425
-1567 -1085 -2063 -1913 -80 -132 -238 -437 -281 -540 -20 -47 -48 -115 -70
-165 -61 -140 -203 -596 -229 -735 -2 -14 -16 -79 -29 -145 -23 -107 -56 -324
-72 -460 -20 -182 -27 -656 -12 -870 6 -100 33 -338 42 -385 3 -14 7 -43 11
-65 8 -58 10 -68 38 -206 85 -417 229 -833 423 -1221 598 -1196 1640 -2097
2910 -2517 220 -73 555 -156 743 -185 68 -10 266 -35 320 -41 30 -3 84 -8 120
-12 147 -14 774 -6 880 12 14 2 52 6 85 9 33 3 69 8 81 10 12 2 45 7 75 11 30
4 113 18 184 32 72 14 141 27 155 30 165 30 626 173 785 243 22 10 76 32 120
50 200 82 577 287 795 433 177 118 443 329 599 472 146 135 347 345 462 485
29 36 56 67 59 70 32 31 350 479 350 494 0 2 29 53 65 112 60 98 225 420 267
519 159 376 299 842 344 1145 3 19 7 42 9 50 2 8 7 42 11 75 3 33 8 62 9 65 2
3 6 37 10 75 4 39 8 86 11 105 23 184 23 852 0 980 -2 14 -7 56 -10 93 -3 38
-8 72 -10 75 -2 4 -7 35 -10 70 -4 34 -11 86 -17 115 -5 29 -12 66 -15 82 -29
166 -99 437 -162 630 -532 1625 -1868 2873 -3522 3290 -96 24 -191 47 -210 50
-19 3 -51 10 -70 15 -19 5 -55 12 -79 15 -23 3 -55 7 -70 9 -14 3 -46 8 -71
11 -25 3 -52 8 -60 10 -15 4 -56 9 -185 21 -38 4 -83 9 -100 11 -37 4 -632 13
-637 9z"/>
</g>
</svg>
